<svg xmlns="http://www.w3.org/2000/svg" xmlns:xlink="http://www.w3.org/1999/xlink" id="Layer_1" x="0px" y="0px" viewBox="0 0 884.5 884.5" style="enable-background:new 0 0 884.5 884.5;" xml:space="preserve">
<style type="text/css">.st0{fill:#fff}.st1{fill:#bfbfbf}.st2{fill:#666}.st3{fill:#999}.st4{fill:#333}</style>
<circle class="st0" cx="442.3" cy="442.3" r="402.5"/>
<circle class="st1" cx="442.3" cy="277.3" r="136.6"/>
<circle class="st2" cx="442.3" cy="607.2" r="136.6"/>
<circle class="st3" cx="607.2" cy="442.3" r="136.6"/>
<circle class="st4" cx="277.3" cy="442.3" r="136.6"/>
<path d="M410.1,410.1c-49.5-11.9-88.5-50.9-100.4-100.4C358.9,321.7,397.9,360.6,410.1,410.1z"/>
<path d="M309.4,575.1c11.9-49.5,50.9-88.5,100.4-100.4C397.9,523.9,358.9,562.9,309.4,575.1L309.4,575.1z"/>
<path d="M474.4,474.4c49.5,11.9,88.5,50.9,100.4,100.4C525.6,562.9,486.6,523.9,474.4,474.4L474.4,474.4z"/>
<path d="M575.1,309.4c-11.9,49.5-50.9,88.5-100.4,100.4C486.6,360.6,525.6,321.7,575.1,309.4L575.1,309.4z"/>
</svg>