<svg xmlns="http://www.w3.org/2000/svg" viewBox="0 0 500 500"><defs><style>.a{fill:#fff}</style></defs><path class="a" d="M250.21,15.38C120.66,15.38,15.64,120.4,15.64,250s105,234.57,234.57,234.57S484.78,379.5,484.78,250,379.76,15.38,250.21,15.38Zm114.16,301.3-71.93,71.59a24.79,24.79,0,0,1-35-.09l-2.5-2.51-100.05-99V346a24.75,24.75,0,1,1-49.49,0V153.66a24.75,24.75,0,1,1,49.49,0v59.17l100.1-99c.77-.77,2.45-2.17,2.5-2.22a24.79,24.79,0,0,1,35-.09l71.88,71.59a24.75,24.75,0,0,1-34.91,35.1l-54.69-54.45-86.91,86,87.05,86.13,54.55-54.31a24.75,24.75,0,0,1,34.91,35.1ZM300.09,250A24.94,24.94,0,1,1,275.15,225,24.94,24.94,0,0,1,300.09,250Z"/></svg>