<svg xmlns="http://www.w3.org/2000/svg" viewBox="0 0 500 500"><defs><style>.a{fill:#fff}</style></defs><path class="a" d="M250,15.35c-129.55,0-234.57,105-234.57,234.57S120.45,484.49,250,484.49s234.57-105,234.57-234.57S379.55,15.35,250,15.35ZM387.46,348.76c-2,20.42-8.72,39.14-21.41,55.54-15,19.43-35,31.53-58,39.07A140.22,140.22,0,0,1,277.16,450a280.27,280.27,0,0,1-34.86,1.44,185.2,185.2,0,0,1-82.79-22.83,160.89,160.89,0,0,1-32.2-22.36c-7.1-6.49-14.21-13.05-20.62-20.21A180.21,180.21,0,0,1,76.43,338.4a190.2,190.2,0,0,1-13-42.62c-1-5.58-1.46-11.28-2.06-16.94a104.82,104.82,0,0,1-.88-11.31c0-5.56.37-11.12.72-16.67.25-4.09.69-8.18,1.12-12.26a169.49,169.49,0,0,1,6.6-31.42,185.35,185.35,0,0,1,27-54.86,191.93,191.93,0,0,1,26.79-30.17,189.46,189.46,0,0,1,48.82-32.28,169.23,169.23,0,0,1,42.87-13.58c8.23-1.37,16.57-2.11,24.87-3,9.53-1,19-.38,28.57.41,16.31,1.35,32,5.17,47.66,10.59-12.88,16.07-28.22,29.2-45.59,40.4-1-8.16-3-15.85-7.71-22.84-.36.3-.66.44-.77.67-4,8.66-10.93,14.65-18.52,20-12.08,8.43-25.43,14.35-39.2,19.36-6.95,2.52-12.93,6.24-17.15,12.38s-5.09,14.45-.64,20.36c3,3.91,7.12,5.5,11.63,6.53-6.46,1.5-10.1,1.44-16.06-2.62-6.46,6.72-13.31,13.05-22,16.8a32.79,32.79,0,0,1-9.69,2.58c-7.09.66-9.4-4.86-8.85-10.08a53.29,53.29,0,0,1,1.32-5.9,4.32,4.32,0,0,0,.08-2c-10.12,6.66-18.63,14.85-24.72,25.4-9.53,16.52-8.23,33.83-3.8,51.83,3.27-2.65,6.11-5.26,9.25-7.42,5.68-3.92,11.39-7.86,17.38-11.28a127.11,127.11,0,0,1,41.33-14.47,162.92,162.92,0,0,1,20.1-2,164.65,164.65,0,0,1,19.62,0,218.4,218.4,0,0,1,21.93,2.68c6.91,1.18,13.7,3,20.55,4.51a4.86,4.86,0,0,0,1.09-.12c-7.94-12.87-19.65-21-32.61-27.61,0-.22.08-.44.11-.66,5.59,0,11.17-.07,16.75,0,3.3.06,6.59.41,9.89.62a132.46,132.46,0,0,1,27.32,4.88,142.6,142.6,0,0,1,41.16,19,135.06,135.06,0,0,1,25.4,22.3A137,137,0,0,1,385,309.93a127.5,127.5,0,0,1,2.5,19.49A117.82,117.82,0,0,1,387.46,348.76ZM249.13,140.52c-5.36,23.83-22.32,34.2-46.3,32.95a32.64,32.64,0,0,1,.49-4.87c1.28-5,5-8.07,9.36-10.15,5.81-2.77,11.84-5.11,17.81-7.56C237.07,148.2,243.58,145.4,249.13,140.52ZM145,208.85c-.18,3-.87,5.88-1.34,8.82l-.88-.11c-.57-2.71-2.44-3.94-5-3.36-4.74,1-7.93,4.25-11.29,8.14a27,27,0,0,1,4.84-11.85,14.67,14.67,0,0,1,7.92-5.93C142.5,203.61,145.22,205.46,145,208.85Zm251.07,13.43c-23.17-25.48-52.22-39.8-86.07-45,24.34.39,47.26,6.28,69.58,17.67-1.38-2.33-2.41-4-3.41-5.75a49.4,49.4,0,0,1-2.78-5.32c18.07,8.31,34.55,19.08,50.4,31.24a20.78,20.78,0,0,0-1.6-2.29,209.32,209.32,0,0,0-24.42-23.11A197.5,197.5,0,0,0,332.87,155,158.37,158.37,0,0,0,302,148.23c-2.14-.22-4.27-.69-6.41-.81a4.07,4.07,0,0,0-2.33,1c-12.08,9.33-25.58,16-39.67,21.7-.2.09-.47,0-.24,0,3.05-4.24,6.5-8.49,9.3-13.13,2-3.3,3.06-7.15,4.66-10.7a4.14,4.14,0,0,1,1.87-2,115.57,115.57,0,0,0,28.08-16.52A127.78,127.78,0,0,0,318.94,105l3-4-13.27,4a149.83,149.83,0,0,0,29.91-56.63c-.24,14.62-1.62,29-6,43.05,48.15,24.59,81.36,62.21,98.17,113.75,12.38,38,10.4,79.07,1.84,106.92C431.07,277.92,419.27,247.78,396.08,222.28Z"/></svg>