<svg xmlns="http://www.w3.org/2000/svg" xmlns:xlink="http://www.w3.org/1999/xlink" id="Layer_1" x="0px" y="0px" viewBox="0 0 60 60" style="enable-background:new 0 0 60 60;" xml:space="preserve">
<style type="text/css">.st0{fill:#fff}</style>
<g>
	<path class="st0" d="M30.9,4C16.5,4.1,4.9,15.7,5,30.1c0.1,14.4,11.7,26,26.1,25.9c14.4-0.1,26-11.7,25.9-26.1c0,0,0,0,0,0   C56.9,15.5,45.3,3.9,30.9,4z M35.3,53.6C35.3,53.7,35.3,53.7,35.3,53.6C35.3,53.7,35.3,53.7,35.3,53.6   C35.3,53.7,35.3,53.7,35.3,53.6c-0.6,0.2-1.2,0.3-1.8,0.4c0,0,0,0,0,0c-0.6,0.1-1.2,0.1-1.7,0.2c0,0,0,0,0,0   c-3.9,0.2-7.3-0.7-10.2-2c-0.1,0-0.2-0.1-0.3-0.1c-0.2-0.1-0.4-0.2-0.6-0.3c-3.1-1.5-5.8-3.5-7.8-5.9c-0.7-0.7-1.1-1.4-1.3-1.7   C8.7,40.2,7,35.4,7,30.1C6.9,16.8,17.6,6,30.9,6C44.2,5.9,55,16.6,55,29.9C55.1,41.7,46.6,51.6,35.3,53.6z"/>
	<path class="st0" d="M44.2,11.8c-1.2-1-2.4-1.9-3.7-2.7c-1.4-0.8-2.9-1.3-4.4-1.5c-1.5-0.3-3.1-0.3-4.6,0v0.1c1.5,0.3,3,0.6,4.4,1   s2.8,1,4.1,1.5c1.4,0.5,2.7,1.2,4,2c1.2,0.9,2.3,2,3.1,3.2c0.8,1.2,1.6,2.5,2.3,3.8c0.7,1.3,1.3,2.7,1.8,4c1,2.8,1.8,5.6,2.3,8.6   h0.2c0.5-3.1,0.2-6.2-0.9-9.2c-0.5-1.4-1.3-2.8-2.1-4.1c-0.8-1.3-1.8-2.5-3-3.6C46.5,13.7,45.4,12.7,44.2,11.8z"/>
	<path class="st0" d="M11.6,44.2c0.2,0.4,0.7,1,1.3,1.7c-0.4-0.5-0.8-0.9-1.1-1.4C11.7,44.4,11.7,44.3,11.6,44.2z"/>
	<path class="st0" d="M21.5,52.2c2.9,1.3,6.4,2.2,10.2,2C28.2,54.3,24.7,53.6,21.5,52.2z"/>
	<path class="st0" d="M21.3,52.1c-0.2-0.1-0.4-0.2-0.6-0.3C20.9,51.9,21.1,52,21.3,52.1z"/>
	<path class="st0" d="M35.3,53.7C35.3,53.7,35.3,53.7,35.3,53.7c-0.6,0.1-1.1,0.2-1.7,0.3C34.1,53.9,34.7,53.8,35.3,53.7z"/>
	<path class="st0" d="M33.5,54c-0.6,0.1-1.2,0.1-1.7,0.2C32.4,54.1,32.9,54.1,33.5,54z"/>
	<path class="st0" d="M11.6,44.1C11.6,44.1,11.6,44.2,11.6,44.1c0.1,0.2,0.2,0.3,0.2,0.4C11.7,44.4,11.6,44.2,11.6,44.1z"/>
	<path class="st0" d="M22.5,36.3c2.5-0.1,5-0.9,7.1-2.3c0.8-0.7,1.4-0.4,2.1,0c1.2,0.7,2.6,1,4,1c1.5,0,3.1-0.1,4.6-0.4   c1.5-0.3,3-0.8,4.5-1.4c0.7-0.2,1.3-0.5,1.9-0.9c0.2-0.1,0.5-0.3,0.7-0.4c0,0,0.1-0.1,0.1-0.1c0.5-0.3,1-0.7,1.5-1.1l0,0   c-0.7,0.9-1.4,1.7-2.2,2.5c4.6-4.2,5.6-9.3-3.7-11.9c-1.7-0.5-3.5-1.2-5.4-1.9c-0.1-0.3-0.2-0.5-0.4-0.7c0.1,0.2,0.3,0.5,0.4,0.7   c-2.1-1.1-4.3-1.8-6.6-2.3c0,0,0,0-0.1,0c-2.1-0.6-4.2-0.6-6.3-0.2c-9.4,2.6-10.5,7.4-10.7,13c0-0.4,0.1-0.9,0.1-1.3   C14.8,32.9,18.3,36.1,22.5,36.3z M44.2,27.7c0.6,0,1,0.4,1,1v0c0,0.6-0.5,1-1,1s-1-0.5-1-1C43.2,28.2,43.7,27.7,44.2,27.7z    M27.7,19.5c2.5,0,4.6,2.1,4.6,4.6s-2.1,4.6-4.6,4.6s-4.6-2.1-4.6-4.6S25.1,19.5,27.7,19.5z"/>
	<path class="st0" d="M36.5,17.8c0.4,0.3,0.7,0.6,1,0.9c-1.2-2-4-2.3-6.3-1.5c0,0,0,0,0.1,0C33.1,16.8,35.3,16.8,36.5,17.8z"/>
	<path class="st0" d="M37.4,18.7c-0.3-0.4-0.6-0.7-1-0.9c-1.2-1-3.4-1-5.3-0.6c2.3,0.4,4.5,1.2,6.6,2.3   C37.7,19.2,37.6,18.9,37.4,18.7z"/>
	<path class="st0" d="M27.6,27.4c1.8,0,3.3-1.4,3.3-3.2c0,0,0,0,0,0c0-1.8-1.5-3.3-3.3-3.3c-1.8,0-3.3,1.4-3.3,3.2   C24.3,25.9,25.8,27.4,27.6,27.4z"/>
	<path class="st0" d="M21.5,52.2c-0.1,0-0.2-0.1-0.3-0.1C21.3,52.1,21.4,52.1,21.5,52.2z"/>
	<path class="st0" d="M31.8,54.2C31.8,54.2,31.8,54.2,31.8,54.2C31.8,54.2,31.8,54.2,31.8,54.2z"/>
	<path class="st0" d="M12.9,45.9c2,2.3,4.7,4.4,7.8,5.9C17.1,50,14.5,47.6,12.9,45.9z"/>
	<path class="st0" d="M35.3,53.7C35.3,53.7,35.3,53.7,35.3,53.7C35.3,53.7,35.3,53.7,35.3,53.7C35.3,53.7,35.3,53.7,35.3,53.7   C35.2,53.7,35.3,53.7,35.3,53.7z"/>
	<path class="st0" d="M33.6,54C33.5,54,33.5,54,33.6,54C33.5,54,33.5,54,33.6,54z"/>
	<path class="st0" d="M14.1,30c-0.4,5.1-0.8,9.1-2.8,13.7c0.1,0.1,0.2,0.3,0.3,0.4c0,0,0-0.1-0.1-0.1C14.1,39.2,13.9,34.3,14.1,30z"/>
	<path class="st0" d="M43.9,36.2c1-0.9,2-1.9,3-2.9c-1.6,1.5-3.6,2.8-5.8,4c-10,5.1-6.2,15.6-5.9,16.4c0,0,0,0,0.1,0   C34.3,46.6,40.5,39.7,43.9,36.2z"/>
	<path class="st0" d="M31.1,54c-7.9,0-14.9-3.7-19.3-9.6c0.3,0.5,0.7,1,1.1,1.4c1.5,1.7,4.2,4.1,7.8,5.9c0.2,0.1,0.4,0.2,0.6,0.3   c0.1,0,0.2,0.1,0.3,0.1c3.2,1.4,6.7,2.2,10.2,2c0,0,0,0,0,0c0.6,0,1.2-0.1,1.7-0.2c0,0,0,0,0,0c0.6-0.1,1.1-0.2,1.7-0.3   c0,0,0,0,0,0C33.9,53.9,32.5,54,31.1,54z"/>
	<path class="st0" d="M31.1,54c1.4,0,2.8-0.1,4.1-0.4c-0.3-0.8-4.1-11.3,5.9-16.4c2.2-1.1,4.2-2.5,5.8-4c0.8-0.8,1.5-1.6,2.2-2.5   l0,0c-0.5,0.4-1,0.7-1.5,1.1c0.4-0.3,0.9-0.6,1.3-0.9h0.1c-1.2,1-2.5,1.9-4,2.6c-1.4,0.7-2.9,1.2-4.5,1.6c-1.5,0.5-3.2,0.6-4.8,0.6   c-1.6-0.1-3.2-0.8-4.4-1.9c0.1,0.1,0.2,0.1,0.3,0.2c-0.6-0.5-1.2-0.7-2.1,0c-2.1,1.4-4.6,2.3-7.1,2.3c-4.2-0.2-7.7-3.3-8.3-7.5   c0,0.4-0.1,0.9-0.1,1.3c-0.2,4.3,0.1,9.1-2.6,14c0,0,0,0.1,0.1,0.1c0.1,0.1,0.2,0.2,0.2,0.4C16.2,50.3,23.2,54.1,31.1,54z"/>
	<path class="st0" d="M46.6,32.3c0.3-0.1,0.5-0.3,0.7-0.4C47.1,32.1,46.9,32.2,46.6,32.3z"/>
</g>
</svg>