<svg xmlns="http://www.w3.org/2000/svg" viewBox="0 0 500 500"><defs><style>.a{fill:#fff}</style></defs><path class="a" d="M480.75,250v-.83C480.33,120.61,376.82,15.43,249.93,15.43,122.63,15.43,19.12,120.19,19.12,250c0,129,103.51,234.57,230.81,234.57,58.44,0,114-22.12,156.94-62.61,8.76-8.35,9.18-21.28.83-30-7.93-8.76-20.86-9.18-29.63-1.25l-.42.42c-34.64,32.55-81,51.33-128.55,51.33A186.45,186.45,0,0,1,108.86,379l98.5-158.19v73c0,35.06,13.77,46.32,25,49.66s28.8.84,47.17-28.8L333.83,227a34.69,34.69,0,0,1,5-7.09v44.66c0,32.55,13.35,59.27,35.89,71.79,20.45,11.68,46.33,10.43,67.62-2.92C468.22,316,482.42,285.89,480.75,250Zm-60.29,45.91c-8.34,5-17.53,5.85-25,1.67-9.18-5.42-14.61-17.53-14.61-34.64V212c0-24.63-9.6-42.16-25.87-46.75-27.55-8.35-48.42,25.88-56.35,38.82l-48.83,78.47V185.72c-.42-22.12-7.94-35.47-21.29-39.65-9.18-2.92-22.54-1.25-35.9,18.78L83.22,340.15A192,192,0,0,1,61.1,250C60.68,144.4,145.41,58.42,249.76,58.42S438.83,144.4,438.83,250v.83C439.66,271.29,433.4,288,420.46,295.91Z"/></svg>